<svg width="16" height="16" viewBox="0 0 16 16" xmlns="http://www.w3.org/2000/svg" xmlns:xlink="http://www.w3.org/1999/xlink" fill="currentColor" overflow="hidden"><style>
.MsftOfcResponsive_Fill_fbfefd {
 fill:#FBFEFD; 
}
</style>
<path d="M12 8C12 10.2091 10.2091 12 8 12 5.79086 12 4 10.2091 4 8 4 5.79086 5.79086 4 8 4 10.2091 4 12 5.79086 12 8ZM8 0C8.27614 -1.11022e-16 8.5 0.223858 8.5 0.5L8.5 2.5C8.5 2.77614 8.27614 3 8 3 7.72386 3 7.5 2.77614 7.5 2.5L7.5 0.5C7.5 0.223858 7.72386 -5.55112e-17 8 -5.55112e-17ZM8 13C8.27614 13 8.5 13.2239 8.5 13.5L8.5 15.5C8.5 15.7761 8.27614 16 8 16 7.72386 16 7.5 15.7761 7.5 15.5L7.5 13.5C7.5 13.2239 7.72386 13 8 13ZM16 8C16 8.27614 15.7761 8.5 15.5 8.5L13.5 8.5C13.2239 8.5 13 8.27614 13 8 13 7.72386 13.2239 7.5 13.5 7.5L15.5 7.5C15.7761 7.5 16 7.72386 16 8ZM3 8C3 8.27614 2.77614 8.5 2.5 8.5L0.5 8.5C0.223858 8.5 0 8.27614 0 8 -1.11022e-16 7.72386 0.223858 7.5 0.5 7.5L2.5 7.5C2.77614 7.5 3 7.72386 3 8ZM13.657 2.343C13.8522 2.53825 13.8522 2.85475 13.657 3.05L12.243 4.465C12.0475 4.66023 11.7307 4.66001 11.5355 4.4645 11.3403 4.26899 11.3405 3.95223 11.536 3.757L12.95 2.343C13.1452 2.14781 13.4618 2.14781 13.657 2.343ZM4.464 11.536C4.65919 11.7312 4.65919 12.0478 4.464 12.243L3.05 13.657C2.85137 13.8488 2.53484 13.8433 2.343 13.6447 2.15586 13.4509 2.15586 13.1438 2.343 12.95L3.757 11.536C3.95225 11.3408 4.26875 11.3408 4.464 11.536ZM13.657 13.657C13.4618 13.8522 13.1452 13.8522 12.95 13.657L11.536 12.243C11.3442 12.0444 11.3497 11.7278 11.5483 11.536 11.7421 11.3489 12.0492 11.3489 12.243 11.536L13.657 12.95C13.8522 13.1452 13.8522 13.4618 13.657 13.657ZM4.464 4.465C4.26875 4.66019 3.95225 4.66019 3.757 4.465L2.343 3.05C2.14437 2.85816 2.13887 2.54163 2.33071 2.343 2.52255 2.14437 2.83909 2.13887 3.03771 2.33071 3.04188 2.33474 3.04598 2.33883 3.05 2.343L4.464 3.757C4.65951 3.95202 4.65991 4.2686 4.46489 4.46411 4.4646 4.4644 4.4643 4.4647 4.464 4.465Z" class="MsftOfcResponsive_Fill_fbfefd" fill="#FBFEFD"/></svg>
