<svg width="16" height="16" viewBox="0 0 16 16" xmlns="http://www.w3.org/2000/svg" xmlns:xlink="http://www.w3.org/1999/xlink" fill="currentColor" overflow="hidden"><path d="M6 0.278C6.19972 0.520686 6.23141 0.860574 6.08 1.136 5.50186 2.19747 5.19993 3.38729 5.202 4.596 5.202 8.617 8.48 11.873 12.52 11.873 13.047 11.873 13.56 11.818 14.053 11.713 14.362 11.6461 14.681 11.7705 14.863 12.029 15.0563 12.2993 15.0435 12.6658 14.832 12.922 13.2436 14.8732 10.86 16.004 8.344 16 3.734 16 0 12.286 0 7.71 0 4.266 2.114 1.312 5.124 0.06 5.43199-0.070167 5.78894 0.0186621 6 0.278Z" fill="#585858"/></svg>