<svg width="16" height="16" viewBox="0 0 16 16" xmlns="http://www.w3.org/2000/svg" xmlns:xlink="http://www.w3.org/1999/xlink" fill="currentColor" overflow="hidden"><style>
.MsftOfcResponsive_Fill_06929c {
 fill:#06929C; 
}
</style>
<path d="M13.601 2.326C12.1193 0.830541 10.0992-0.00746113 7.994-2.47955e-08 3.627 0 0.068 3.558 0.064 7.926 0.064 9.325 0.43 10.686 1.121 11.891L0 16 4.204 14.898C5.367 15.5309 6.66993 15.8627 7.994 15.863L7.998 15.863C12.366 15.863 15.924 12.305 15.928 7.933 15.93 5.82848 15.092 3.81019 13.6 2.326ZM7.994 14.521C6.813 14.5214 5.6537 14.2036 4.638 13.601L4.398 13.457 1.904 14.111 2.57 11.678 2.414 11.427C1.75381 10.3773 1.40465 9.16203 1.407 7.922 1.407 4.296 4.364 1.338 7.998 1.338 9.74661 1.33486 11.4241 2.02998 12.658 3.269 13.8962 4.5032 14.5903 6.18075 14.586 7.929 14.582 11.568 11.625 14.521 7.994 14.521ZM11.609 9.587C11.412 9.488 10.439 9.009 10.256 8.941 10.074 8.876 9.941 8.842 9.811 9.04 9.678 9.237 9.298 9.686 9.184 9.815 9.07 9.948 8.952 9.963 8.754 9.865 8.557 9.765 7.918 9.557 7.162 8.88 6.572 8.355 6.177 7.705 6.059 7.508 5.945 7.31 6.048 7.204 6.147 7.105 6.234 7.017 6.344 6.873 6.443 6.759 6.543 6.645 6.576 6.561 6.641 6.429 6.706 6.295 6.675 6.181 6.626 6.082 6.576 5.983 6.181 5.006 6.014 4.612 5.854 4.223 5.691 4.277 5.569 4.272 5.455 4.265 5.322 4.265 5.189 4.265 4.98596 4.27005 4.79423 4.35957 4.66 4.512 4.478 4.71 3.969 5.189 3.969 6.166 3.969 7.143 4.679 8.082 4.779 8.215 4.877 8.348 6.173 10.347 8.162 11.207 8.632 11.412 9.002 11.533 9.291 11.625 9.766 11.777 10.195 11.754 10.537 11.705 10.917 11.647 11.708 11.225 11.875 10.762 12.039 10.298 12.039 9.902 11.989 9.819 11.94 9.735 11.807 9.686 11.609 9.587Z" class="MsftOfcResponsive_Fill_06929c" fill="#06929C"/></svg>